# xmcd
#
# Track frame offsets:
#	150
#	9055
#	25192
#	36197
#	50187
#	62317
#	73047
#	87792
#	100905
#	113720
#	126225
#	140412
#	150490
#	166460
#
# Disc length: 2349 seconds
#
# Revision: 1
# Processed by: cddbd v1.5.2PL0 Copyright (c) Steve Scherf et al.
# Submitted via: audiograbber 1.83.01
#
DISCID=ae092b0e
DTITLE=Samantha Callaghan - Every Little Thing
DYEAR=1900
DGENRE=
TTITLE0=They Don't Make 'Em Like My Daddy Anymore
TTITLE1=One Bird On A Wing
TTITLE2=Heartaches By The Number
TTITLE3=Between The Two Of Them
TTITLE4=A Day In The Life Of Love
TTITLE5=Lovesick Blues
TTITLE6=Isle Of Innisfree
TTITLE7=Every Little Thing
TTITLE8=Irish Eyes
TTITLE9=Pick Me Up On Your Way Down
TTITLE10=You'll Never Get To Heaven
TTITLE11=I'll Forgive And I'll Try To Forget
TTITLE12=Why Can't He Be You
TTITLE13=Are You Teasing Me
EXTD=
EXTT0=
EXTT1=
EXTT2=
EXTT3=
EXTT4=
EXTT5=
EXTT6=
EXTT7=
EXTT8=
EXTT9=
EXTT10=
EXTT11=
EXTT12=
EXTT13=
PLAYORDER=
